<mxfile host="app.diagrams.net" modified="2024-03-19T10:26:01.025Z" agent="Mozilla/5.0 (Windows NT 10.0; Win64; x64) AppleWebKit/537.36 (KHTML, like Gecko) Chrome/122.0.0.0 Safari/537.36" etag="JBYNAtYNB0hNaXTyj90V" version="24.0.7" type="device">
  <diagram name="Strona-1" id="vCR2zcsVX5F0HRR7Mt7r">
    <mxGraphModel dx="1799" dy="946" grid="1" gridSize="10" guides="1" tooltips="1" connect="1" arrows="1" fold="1" page="1" pageScale="1" pageWidth="827" pageHeight="1169" math="0" shadow="0">
      <root>
        <mxCell id="0" />
        <mxCell id="1" parent="0" />
        <mxCell id="fKiIdGAY0l0U11j1hd6N-1" value="Пользователь" style="html=1;whiteSpace=wrap;" vertex="1" parent="1">
          <mxGeometry x="120" y="110" width="110" height="50" as="geometry" />
        </mxCell>
        <mxCell id="fKiIdGAY0l0U11j1hd6N-2" value="Система" style="html=1;whiteSpace=wrap;" vertex="1" parent="1">
          <mxGeometry x="120" y="440" width="110" height="50" as="geometry" />
        </mxCell>
        <mxCell id="fKiIdGAY0l0U11j1hd6N-3" value="Товар" style="html=1;whiteSpace=wrap;" vertex="1" parent="1">
          <mxGeometry x="550" y="210" width="110" height="50" as="geometry" />
        </mxCell>
        <mxCell id="fKiIdGAY0l0U11j1hd6N-4" value="Склад" style="html=1;whiteSpace=wrap;" vertex="1" parent="1">
          <mxGeometry x="420" y="30" width="110" height="50" as="geometry" />
        </mxCell>
        <mxCell id="fKiIdGAY0l0U11j1hd6N-9" value="" style="endArrow=none;endFill=0;endSize=12;html=1;rounded=0;exitX=0.5;exitY=1;exitDx=0;exitDy=0;" edge="1" parent="1" source="fKiIdGAY0l0U11j1hd6N-1" target="fKiIdGAY0l0U11j1hd6N-2">
          <mxGeometry width="160" relative="1" as="geometry">
            <mxPoint x="330" y="430" as="sourcePoint" />
            <mxPoint x="490" y="430" as="targetPoint" />
          </mxGeometry>
        </mxCell>
        <mxCell id="fKiIdGAY0l0U11j1hd6N-10" value="" style="endArrow=none;endFill=0;endSize=12;html=1;rounded=0;exitX=0.5;exitY=1;exitDx=0;exitDy=0;entryX=1;entryY=0.5;entryDx=0;entryDy=0;" edge="1" parent="1" source="fKiIdGAY0l0U11j1hd6N-3" target="fKiIdGAY0l0U11j1hd6N-2">
          <mxGeometry width="160" relative="1" as="geometry">
            <mxPoint x="185" y="260" as="sourcePoint" />
            <mxPoint x="176" y="450" as="targetPoint" />
          </mxGeometry>
        </mxCell>
        <mxCell id="fKiIdGAY0l0U11j1hd6N-12" value="" style="endArrow=none;endFill=0;endSize=12;html=1;rounded=0;exitX=0.5;exitY=1;exitDx=0;exitDy=0;entryX=0.75;entryY=0;entryDx=0;entryDy=0;" edge="1" parent="1" source="fKiIdGAY0l0U11j1hd6N-4" target="fKiIdGAY0l0U11j1hd6N-2">
          <mxGeometry width="160" relative="1" as="geometry">
            <mxPoint x="575" y="270" as="sourcePoint" />
            <mxPoint x="230" y="475" as="targetPoint" />
          </mxGeometry>
        </mxCell>
        <mxCell id="fKiIdGAY0l0U11j1hd6N-25" value="" style="group;rotation=-44;" vertex="1" connectable="0" parent="1">
          <mxGeometry x="140" y="260" width="70" height="70" as="geometry" />
        </mxCell>
        <mxCell id="fKiIdGAY0l0U11j1hd6N-26" value="" style="endArrow=blockThin;endFill=1;endSize=12;html=1;rounded=0;" edge="1" parent="fKiIdGAY0l0U11j1hd6N-25">
          <mxGeometry width="160" relative="1" as="geometry">
            <mxPoint x="50" y="60" as="sourcePoint" />
            <mxPoint x="50" y="-20" as="targetPoint" />
          </mxGeometry>
        </mxCell>
        <mxCell id="fKiIdGAY0l0U11j1hd6N-27" value="" style="endArrow=blockThin;endFill=1;endSize=12;html=1;rounded=0;" edge="1" parent="fKiIdGAY0l0U11j1hd6N-25">
          <mxGeometry width="160" relative="1" as="geometry">
            <mxPoint x="20" y="-20" as="sourcePoint" />
            <mxPoint x="20" y="60" as="targetPoint" />
          </mxGeometry>
        </mxCell>
        <mxCell id="fKiIdGAY0l0U11j1hd6N-29" value="" style="group;rotation=-5;" vertex="1" connectable="0" parent="1">
          <mxGeometry x="343" y="170" width="70" height="70" as="geometry" />
        </mxCell>
        <mxCell id="fKiIdGAY0l0U11j1hd6N-31" value="" style="endArrow=blockThin;endFill=1;endSize=12;html=1;rounded=0;" edge="1" parent="fKiIdGAY0l0U11j1hd6N-29">
          <mxGeometry width="160" relative="1" as="geometry">
            <mxPoint x="58" y="-17" as="sourcePoint" />
            <mxPoint x="8" y="45" as="targetPoint" />
          </mxGeometry>
        </mxCell>
        <mxCell id="fKiIdGAY0l0U11j1hd6N-32" value="" style="group;rotation=15;" vertex="1" connectable="0" parent="1">
          <mxGeometry x="343" y="350" width="70" height="70" as="geometry" />
        </mxCell>
        <mxCell id="fKiIdGAY0l0U11j1hd6N-33" value="" style="endArrow=blockThin;endFill=1;endSize=12;html=1;rounded=0;" edge="1" parent="fKiIdGAY0l0U11j1hd6N-32">
          <mxGeometry width="160" relative="1" as="geometry">
            <mxPoint x="21" y="60" as="sourcePoint" />
            <mxPoint x="90" y="19" as="targetPoint" />
          </mxGeometry>
        </mxCell>
        <mxCell id="fKiIdGAY0l0U11j1hd6N-34" value="" style="endArrow=blockThin;endFill=1;endSize=12;html=1;rounded=0;" edge="1" parent="fKiIdGAY0l0U11j1hd6N-32">
          <mxGeometry width="160" relative="1" as="geometry">
            <mxPoint x="74" y="-7" as="sourcePoint" />
            <mxPoint x="6" y="35" as="targetPoint" />
          </mxGeometry>
        </mxCell>
        <mxCell id="fKiIdGAY0l0U11j1hd6N-35" value="1:запрос на добавление" style="text;html=1;align=center;verticalAlign=middle;resizable=0;points=[];autosize=1;strokeColor=none;fillColor=none;" vertex="1" parent="1">
          <mxGeometry x="5" y="240" width="160" height="30" as="geometry" />
        </mxCell>
        <mxCell id="fKiIdGAY0l0U11j1hd6N-36" value="2:&quot;Create&quot;" style="edgeLabel;html=1;align=center;verticalAlign=middle;resizable=0;points=[];" vertex="1" connectable="0" parent="1">
          <mxGeometry x="430" y="400" as="geometry" />
        </mxCell>
        <mxCell id="fKiIdGAY0l0U11j1hd6N-37" value="3:заполнить данные товара" style="edgeLabel;html=1;align=center;verticalAlign=middle;resizable=0;points=[];" vertex="1" connectable="0" parent="1">
          <mxGeometry x="470" y="420" as="geometry" />
        </mxCell>
        <mxCell id="fKiIdGAY0l0U11j1hd6N-38" value="4:данные введены" style="edgeLabel;html=1;align=center;verticalAlign=middle;resizable=0;points=[];" vertex="1" connectable="0" parent="1">
          <mxGeometry x="378" y="320" as="geometry" />
        </mxCell>
        <mxCell id="fKiIdGAY0l0U11j1hd6N-39" style="edgeStyle=orthogonalEdgeStyle;rounded=0;orthogonalLoop=1;jettySize=auto;html=1;exitX=0.5;exitY=1;exitDx=0;exitDy=0;entryX=1;entryY=0.75;entryDx=0;entryDy=0;endArrow=none;endFill=0;" edge="1" parent="1" source="fKiIdGAY0l0U11j1hd6N-2" target="fKiIdGAY0l0U11j1hd6N-2">
          <mxGeometry relative="1" as="geometry" />
        </mxCell>
        <mxCell id="fKiIdGAY0l0U11j1hd6N-40" value="" style="endArrow=blockThin;endFill=1;endSize=12;html=1;rounded=0;" edge="1" parent="1">
          <mxGeometry width="160" relative="1" as="geometry">
            <mxPoint x="190" y="520" as="sourcePoint" />
            <mxPoint x="240" y="520" as="targetPoint" />
          </mxGeometry>
        </mxCell>
        <mxCell id="fKiIdGAY0l0U11j1hd6N-41" value="&lt;span style=&quot;color: rgb(0, 0, 0); font-family: Helvetica; font-size: 11px; font-style: normal; font-variant-ligatures: normal; font-variant-caps: normal; font-weight: 400; letter-spacing: normal; orphans: 2; text-align: left; text-indent: 0px; text-transform: none; widows: 2; word-spacing: 0px; -webkit-text-stroke-width: 0px; white-space: nowrap; background-color: rgb(255, 255, 255); text-decoration-thickness: initial; text-decoration-style: initial; text-decoration-color: initial; display: inline !important; float: none;&quot;&gt;5:проверка данных&lt;/span&gt;" style="text;whiteSpace=wrap;html=1;" vertex="1" parent="1">
          <mxGeometry x="180" y="520" width="130" height="40" as="geometry" />
        </mxCell>
        <mxCell id="fKiIdGAY0l0U11j1hd6N-42" value="&lt;span style=&quot;color: rgb(0, 0, 0); font-family: Helvetica; font-size: 11px; font-style: normal; font-variant-ligatures: normal; font-variant-caps: normal; font-weight: 400; letter-spacing: normal; orphans: 2; text-align: center; text-indent: 0px; text-transform: none; widows: 2; word-spacing: 0px; -webkit-text-stroke-width: 0px; white-space: nowrap; background-color: rgb(255, 255, 255); text-decoration-thickness: initial; text-decoration-style: initial; text-decoration-color: initial; display: inline !important; float: none;&quot;&gt;6:добавить товар&lt;/span&gt;" style="text;whiteSpace=wrap;html=1;" vertex="1" parent="1">
          <mxGeometry x="580" y="110" width="120" height="40" as="geometry" />
        </mxCell>
        <mxCell id="fKiIdGAY0l0U11j1hd6N-44" value="" style="endArrow=none;endFill=0;endSize=12;html=1;rounded=0;exitX=0.75;exitY=1;exitDx=0;exitDy=0;entryX=0.5;entryY=0;entryDx=0;entryDy=0;" edge="1" parent="1" source="fKiIdGAY0l0U11j1hd6N-4" target="fKiIdGAY0l0U11j1hd6N-3">
          <mxGeometry width="160" relative="1" as="geometry">
            <mxPoint x="615" y="270" as="sourcePoint" />
            <mxPoint x="240" y="475" as="targetPoint" />
          </mxGeometry>
        </mxCell>
        <mxCell id="fKiIdGAY0l0U11j1hd6N-45" value="" style="endArrow=blockThin;endFill=1;endSize=12;html=1;rounded=0;" edge="1" parent="1">
          <mxGeometry width="160" relative="1" as="geometry">
            <mxPoint x="600" y="170" as="sourcePoint" />
            <mxPoint x="560" y="120" as="targetPoint" />
          </mxGeometry>
        </mxCell>
        <mxCell id="fKiIdGAY0l0U11j1hd6N-58" value="7:товар добавлен" style="edgeLabel;html=1;align=center;verticalAlign=middle;resizable=0;points=[];" vertex="1" connectable="0" parent="1">
          <mxGeometry x="310.0033333333333" y="150" as="geometry" />
        </mxCell>
        <mxCell id="fKiIdGAY0l0U11j1hd6N-59" value="8:товар добавлен" style="edgeLabel;html=1;align=center;verticalAlign=middle;resizable=0;points=[];" vertex="1" connectable="0" parent="1">
          <mxGeometry x="245" y="250" as="geometry" />
        </mxCell>
        <mxCell id="fKiIdGAY0l0U11j1hd6N-60" value="7:товар не добавлен" style="edgeLabel;html=1;align=center;verticalAlign=middle;resizable=0;points=[];" vertex="1" connectable="0" parent="1">
          <mxGeometry x="310.003333333333" y="170" as="geometry" />
        </mxCell>
        <mxCell id="fKiIdGAY0l0U11j1hd6N-61" value="8:товар не добавлен" style="edgeLabel;html=1;align=center;verticalAlign=middle;resizable=0;points=[];" vertex="1" connectable="0" parent="1">
          <mxGeometry x="249.99666666666644" y="270" as="geometry" />
        </mxCell>
        <mxCell id="fKiIdGAY0l0U11j1hd6N-62" value="9:удалить" style="edgeLabel;html=1;align=center;verticalAlign=middle;resizable=0;points=[];" vertex="1" connectable="0" parent="1">
          <mxGeometry x="429.9966666666667" y="440" as="geometry" />
        </mxCell>
      </root>
    </mxGraphModel>
  </diagram>
</mxfile>
